<?xml version="1.0" standalone="no"?>
<!DOCTYPE svg PUBLIC "-//W3C//DTD SVG 20010904//EN"
 "http://www.w3.org/TR/2001/REC-SVG-20010904/DTD/svg10.dtd">
<svg version="1.0" xmlns="http://www.w3.org/2000/svg"
 width="538.000000pt" height="538.000000pt" viewBox="0 0 538.000000 538.000000"
 preserveAspectRatio="xMidYMid meet">
<metadata>
Created by potrace 1.14, written by Peter Selinger 2001-2017
</metadata>
<g transform="translate(0.000000,538.000000) scale(0.100000,-0.100000)"
fill="#000000" stroke="none">
<path d="M0 2690 l0 -2690 2690 0 2690 0 0 2690 0 2690 -2690 0 -2690 0 0
-2690z m4957 1204 c21 -17 48 -48 60 -70 21 -38 22 -56 31 -509 16 -723 -9
-1044 -105 -1350 -107 -339 -394 -562 -765 -595 -206 -18 -316 2 -483 88 -226
117 -345 289 -420 610 -49 204 -56 319 -58 931 -2 566 -2 566 -24 608 -14 26
-23 60 -23 88 0 37 6 51 35 84 104 115 313 109 393 -12 l27 -41 -2 -175 c-1
-97 -8 -347 -14 -556 -12 -395 -9 -534 17 -745 51 -421 187 -590 474 -590 196
1 329 79 410 240 51 102 65 152 94 316 44 255 59 492 52 824 -4 162 -13 340
-21 395 -7 55 -19 136 -25 180 -19 129 5 216 75 272 46 37 66 42 157 40 69 -2
80 -5 115 -33z m-4153 -111 c47 -16 100 -55 122 -88 22 -34 31 -81 49 -252 26
-251 116 -649 195 -862 71 -193 174 -413 271 -577 l52 -88 24 55 c39 87 124
304 239 609 238 635 386 942 527 1096 69 75 111 91 252 100 81 5 95 3 135 -18
69 -36 76 -59 51 -181 -27 -136 -58 -361 -72 -529 -7 -91 -9 -334 -6 -725 5
-654 7 -681 76 -843 50 -116 44 -146 -34 -181 -53 -25 -135 -24 -183 0 -54 28
-108 89 -126 143 -8 26 -25 120 -37 210 -19 147 -21 215 -22 693 -2 440 1 554
15 670 9 77 16 141 14 142 -5 5 -126 -265 -176 -392 -27 -66 -103 -273 -169
-460 -137 -384 -232 -630 -268 -692 -28 -48 -92 -109 -129 -123 -41 -16 -112
-11 -152 9 -38 20 -98 84 -189 201 -75 97 -115 164 -204 341 -137 274 -211
471 -292 778 -35 131 -45 158 -50 135 -14 -64 -19 -619 -8 -864 13 -287 21
-358 55 -480 41 -143 41 -153 6 -194 -40 -45 -105 -69 -190 -70 -76 -1 -110
16 -143 71 -49 85 -77 626 -58 1144 16 458 41 709 96 967 8 40 15 98 15 128 0
55 16 100 44 123 37 31 188 33 270 4z"/>
</g>
</svg>
